<?xml version="1.0" standalone="no"?>
<!DOCTYPE svg PUBLIC "-//W3C//DTD SVG 20010904//EN"
 "http://www.w3.org/TR/2001/REC-SVG-20010904/DTD/svg10.dtd">
<svg version="1.0" xmlns="http://www.w3.org/2000/svg"
 width="512.000000pt" height="512.000000pt" viewBox="0 0 512.000000 512.000000"
 preserveAspectRatio="xMidYMid meet">
<metadata>
Created by potrace 1.11, written by Peter Selinger 2001-2013
</metadata>
<g transform="translate(0.000000,512.000000) scale(0.100000,-0.100000)"
fill="#000000" stroke="none">
<path d="M2435 5099 c-341 -116 -368 -589 -42 -740 93 -43 207 -49 300 -16
113 41 216 150 251 267 8 26 13 79 12 125 -4 154 -89 280 -232 347 -87 40
-200 47 -289 17z m231 -211 c57 -38 87 -90 90 -156 5 -126 -83 -214 -209 -208
-177 8 -248 227 -114 349 17 15 45 32 62 37 48 15 133 4 171 -22z"/>
<path d="M1250 4704 c-120 -36 -230 -141 -268 -257 -15 -46 -20 -83 -18 -144
2 -71 7 -91 39 -157 44 -89 102 -145 197 -190 55 -26 78 -31 150 -32 171 -4
299 77 374 236 28 58 31 75 31 160 0 86 -3 101 -31 160 -45 95 -102 153 -190
197 -66 32 -85 37 -157 39 -48 1 -101 -3 -127 -12z m171 -194 c42 -12 104 -66
120 -107 43 -109 -4 -224 -109 -269 -49 -20 -134 -12 -179 19 -105 70 -122
216 -35 303 57 57 124 75 203 54z"/>
<path d="M3636 4699 c-175 -60 -279 -211 -272 -396 6 -150 86 -272 222 -340
66 -32 86 -37 157 -39 101 -3 179 20 254 77 63 47 93 86 130 164 24 52 28 72
28 155 0 86 -4 102 -32 162 -68 145 -193 229 -348 234 -59 2 -95 -2 -139 -17z
m229 -210 c84 -57 118 -165 76 -247 -68 -133 -219 -162 -320 -62 -100 99 -73
257 55 320 54 26 141 21 189 -11z"/>
<path d="M273 3727 c-314 -106 -367 -535 -88 -712 168 -108 395 -73 519 78 20
24 48 70 63 103 24 52 28 71 28 154 0 85 -4 102 -31 160 -17 36 -46 83 -65
105 -103 117 -277 163 -426 112z m200 -192 c84 -35 136 -126 123 -216 -13 -91
-83 -156 -180 -166 -91 -9 -181 53 -206 141 -44 159 114 304 263 241z"/>
<path d="M4578 3722 c-97 -39 -169 -105 -215 -198 -33 -69 -37 -85 -39 -162
-2 -98 13 -152 63 -229 127 -193 387 -240 570 -102 63 47 93 86 130 164 23 52
27 73 28 156 0 90 -2 99 -37 171 -45 91 -104 148 -196 191 -55 26 -80 31 -152
34 -73 2 -94 -2 -152 -25z m231 -195 c155 -80 138 -316 -28 -365 -58 -18 -97
-15 -149 12 -77 39 -120 119 -109 201 19 137 164 214 286 152z"/>
<path d="M2394 3240 c-126 -32 -241 -98 -329 -187 -97 -99 -152 -199 -192
-353 -13 -46 -11 -222 3 -284 28 -131 109 -277 202 -360 l43 -39 -73 -30 c-40
-16 -86 -35 -103 -42 -16 -7 -61 -25 -100 -40 -38 -15 -83 -33 -100 -40 -16
-7 -166 -67 -333 -134 l-303 -121 -132 92 c-73 51 -136 96 -142 101 -54 45
-242 168 -285 186 -113 49 -271 33 -374 -39 -218 -151 -234 -470 -33 -633 36
-30 251 -182 610 -430 149 -104 192 -121 307 -121 l95 0 253 101 252 101 0
-445 c0 -485 0 -486 57 -512 17 -8 272 -11 852 -11 l827 0 27 26 c15 13 28 26
29 27 1 1 5 207 8 458 l5 456 250 -101 250 -100 95 0 c142 0 115 -16 666 370
144 101 276 200 294 221 115 131 130 331 35 478 -71 112 -185 176 -320 181
-129 5 -166 -13 -465 -224 l-259 -182 -283 113 c-156 63 -292 118 -303 122
-11 5 -22 9 -25 10 -3 1 -21 8 -40 16 -19 9 -108 44 -198 80 l-163 64 33 30
c152 140 228 320 223 530 -4 195 -70 351 -206 482 -75 72 -96 87 -177 128
-141 71 -329 92 -478 55z m281 -195 c96 -25 165 -64 236 -136 105 -105 152
-227 145 -374 -7 -137 -63 -255 -162 -343 -105 -94 -193 -126 -339 -126 -84 1
-111 5 -169 28 -280 108 -403 425 -270 693 36 74 142 180 214 215 113 55 238
71 345 43z m79 -1212 c-89 -139 -187 -278 -194 -278 -6 0 -166 228 -204 293
-6 9 38 12 205 12 l211 0 -18 -27z m-2264 -36 c19 -10 45 -25 57 -35 l22 -17
-105 -140 c-58 -77 -112 -149 -119 -159 -14 -18 -15 -18 -42 -1 -84 54 -116
130 -93 225 29 122 164 183 280 127z m4291 13 c73 -20 129 -94 134 -177 5 -84
-20 -130 -104 -191 -36 -27 -71 -52 -78 -56 -8 -4 -47 53 -114 164 -56 94
-100 172 -98 173 133 98 172 111 260 87z m-2477 -248 c91 -136 174 -257 186
-269 36 -40 99 -42 135 -6 10 9 93 130 186 269 l168 252 473 -189 c599 -240
574 -232 613 -212 38 20 259 175 263 185 11 24 37 -9 125 -155 53 -89 97 -167
97 -172 0 -6 -53 -46 -117 -90 -64 -44 -153 -105 -197 -135 -45 -31 -95 -62
-112 -69 -34 -13 -120 -9 -151 8 -10 5 -146 61 -303 123 -316 125 -337 129
-382 78 l-28 -30 0 -475 0 -475 -300 0 -300 0 0 191 c0 160 -3 195 -17 219
-38 66 -128 66 -166 0 -14 -24 -17 -59 -17 -219 l0 -191 -300 0 -300 0 0 475
0 475 -28 31 c-46 52 -70 46 -407 -91 -314 -128 -371 -143 -435 -116 -37 15
-489 328 -490 339 0 4 52 77 116 162 l116 155 32 -22 c98 -68 232 -163 236
-168 15 -16 72 -40 95 -40 20 0 466 170 600 229 11 5 115 47 230 94 116 47
211 85 212 86 2 1 77 -110 167 -247z"/>
<path d="M2368 2503 c-59 -38 -62 -121 -5 -169 107 -90 268 -95 379 -11 76 58
76 152 0 184 -41 17 -68 12 -118 -22 -47 -32 -80 -32 -127 1 -50 33 -94 39
-129 17z"/>
<path d="M2508 1043 c-64 -40 -63 -128 2 -166 36 -21 64 -21 100 0 66 38 66
128 0 166 -35 21 -67 21 -102 0z"/>
</g>
</svg>
