<?xml version="1.0" encoding="iso-8859-1"?>
<!-- Generator: Adobe Illustrator 19.0.0, SVG Export Plug-In . SVG Version: 6.00 Build 0)  -->
<svg version="1.1" id="Capa_1" xmlns="http://www.w3.org/2000/svg" xmlns:xlink="http://www.w3.org/1999/xlink" x="0px" y="0px"
	 viewBox="0 0 511.999 511.999" style="enable-background:new 0 0 511.999 511.999;" xml:space="preserve">
<g>
	<g>
		<path d="M256,405.993c-5.52,0-10,4.48-10,10c0,5.52,4.48,10,10,10c5.52,0,10-4.48,10-10
			C265.999,410.472,261.52,405.993,256,405.993z"/>
	</g>
</g>
<g>
	<g>
		<path d="M277.206,263.064c-3.907-3.902-10.239-3.899-14.141,0.009c-1.878,1.88-4.387,2.916-7.064,2.916
			c-2.677,0-5.186-1.036-7.064-2.916c-3.903-3.908-10.234-3.912-14.141-0.009c-3.908,3.903-3.912,10.234-0.009,14.141
			c5.656,5.664,13.189,8.783,21.213,8.783c8.024,0,15.558-3.119,21.215-8.783C281.118,273.299,281.113,266.967,277.206,263.064z"/>
	</g>
</g>
<g>
	<g>
		<path d="M256,0.011c-22.055,0-39.998,17.943-39.998,39.998S233.945,80.007,256,80.007c22.055,0,39.998-17.943,39.998-39.998
			S278.055,0.011,256,0.011z M256,60.008c-11.027,0-19.999-8.972-19.999-19.999c0-11.028,8.972-19.999,19.999-19.999
			c11.028,0,19.999,8.972,19.999,19.999C275.999,51.037,267.027,60.008,256,60.008z"/>
	</g>
</g>
<g>
	<g>
		<path d="M136.005,40.009c-22.055,0-39.998,17.943-39.998,39.998c0,22.055,17.943,39.998,39.998,39.998
			s39.998-17.943,39.998-39.998C176.003,57.952,158.06,40.009,136.005,40.009z M136.005,100.006
			c-11.028,0-19.999-8.972-19.999-19.999c0-11.027,8.972-19.999,19.999-19.999s19.999,8.972,19.999,19.999
			C156.004,91.035,147.033,100.006,136.005,100.006z"/>
	</g>
</g>
<g>
	<g>
		<path d="M40.01,137.005c-22.055,0-39.998,17.943-39.998,39.998s17.943,39.998,39.998,39.998c22.055,0,39.998-17.943,39.998-39.998
			S62.064,137.005,40.01,137.005z M40.01,197.002c-11.028,0-19.999-8.972-19.999-19.999s8.972-19.999,19.999-19.999
			c11.027,0,19.999,8.972,19.999,19.999S51.037,197.002,40.01,197.002z"/>
	</g>
</g>
<g>
	<g>
		<path d="M375.994,40.009c-22.055,0-39.998,17.943-39.998,39.998c0,22.055,17.943,39.998,39.998,39.998
			s39.998-17.943,39.998-39.998C415.993,57.952,398.049,40.009,375.994,40.009z M375.994,100.006
			c-11.028,0-19.999-8.972-19.999-19.999c0-11.027,8.972-19.999,19.999-19.999c11.028,0,19.999,8.972,19.999,19.999
			C395.993,91.035,387.022,100.006,375.994,100.006z"/>
	</g>
</g>
<g>
	<g>
		<path d="M471.99,137.005c-22.055,0-39.998,17.943-39.998,39.998s17.943,39.998,39.998,39.998
			c22.055,0,39.998-17.943,39.998-39.998S494.045,137.005,471.99,137.005z M471.99,197.002c-11.027,0-19.999-8.972-19.999-19.999
			s8.972-19.999,19.999-19.999c11.028,0,19.999,8.972,19.999,19.999S483.018,197.002,471.99,197.002z"/>
	</g>
</g>
<g>
	<g>
		<path d="M505.269,327.811c-12.26-18.398-37.078-23.37-55.471-11.091c-0.07,0.047-0.139,0.094-0.208,0.143l-48.431,34.123
			l-101.276-40.509c15.91-12.842,26.114-32.486,26.114-54.477c0-38.596-31.401-69.997-69.997-69.997
			c-38.596,0-69.997,31.401-69.997,69.997c0,21.99,10.202,41.633,26.111,54.475l-101.274,40.511l-48.429-34.121
			c-0.072-0.051-0.145-0.101-0.218-0.149c-18.435-12.279-43.225-7.289-55.464,11.096c-12.234,18.359-7.325,43.113,11.003,55.399
			l65.918,45.943c0.058,0.04,0.116,0.08,0.174,0.119c11.174,7.443,25.017,8.664,37.045,3.852l45.134-18.053v86.915
			c0,5.523,4.477,10,10,10h159.993c5.523,0,10-4.477,10-10v-86.915l45.113,18.045c11.718,4.719,25.656,3.757,37.067-3.844
			c0.058-0.039,0.116-0.078,0.174-0.119l65.917-45.942C512.596,370.927,517.506,346.172,505.269,327.811z M206.002,255.999
			c0-27.569,22.429-49.998,49.998-49.998c27.569,0,49.998,22.429,49.998,49.998c0,27.569-22.429,49.998-49.998,49.998
			C228.431,305.997,206.002,283.569,206.002,255.999z M277.319,325.996L256,357.97l-21.319-31.974H277.319z M29.088,366.75
			c-0.057-0.04-0.114-0.079-0.172-0.117c-9.196-6.129-11.68-18.523-5.541-27.736c6.088-9.145,18.401-11.677,27.632-5.604
			l5.906,4.161l-23.98,31.976L29.088,366.75z M417.011,412.681c-5.558,3.665-12.463,4.288-18.453,1.876l-58.847-23.539
			c-3.082-1.233-6.573-0.856-9.32,1.004c-2.747,1.86-4.394,4.962-4.394,8.281v91.686h-59.997V455.99c0-5.523-4.477-10-10-10
			c-5.523,0-10,4.477-10,10v35.998h-59.997v-91.686c0-3.318-1.646-6.42-4.394-8.281c-2.748-1.861-6.239-2.237-9.32-1.004
			l-58.847,23.539c-6.086,2.434-12.954,1.75-18.454-1.876L49.35,380.873l23.918-31.895l30.491,21.482
			c2.765,1.948,6.329,2.366,9.472,1.109l100.892-40.355l33.557,50.328c1.854,2.781,4.977,4.452,8.32,4.452
			c3.343,0,6.465-1.671,8.32-4.452l33.56-50.33l100.891,40.357c3.142,1.257,6.707,0.839,9.473-1.11l26.968-19l20.535,34.225
			L417.011,412.681z M483.085,366.633c-0.059,0.039-0.116,0.078-0.173,0.118l-10.719,7.472l-20.586-34.314l9.391-6.616
			c9.17-6.052,21.514-3.57,27.632,5.609C494.758,348.101,492.288,360.5,483.085,366.633z"/>
	</g>
</g>
<g>
</g>
<g>
</g>
<g>
</g>
<g>
</g>
<g>
</g>
<g>
</g>
<g>
</g>
<g>
</g>
<g>
</g>
<g>
</g>
<g>
</g>
<g>
</g>
<g>
</g>
<g>
</g>
<g>
</g>
</svg>
